<?xml version="1.0" encoding="UTF-8" standalone="no"?>
<!-- Created with Inkscape (http://www.inkscape.org/) -->

<svg
   width="210mm"
   height="297mm"
   viewBox="0 0 210 297"
   version="1.1"
   id="svg1"
   xml:space="preserve"
   inkscape:version="1.4 (1:1.4+202410161351+e7c3feb100)"
   sodipodi:docname="cover.svg"
   inkscape:export-filename="cover.png"
   inkscape:export-xdpi="300"
   inkscape:export-ydpi="300"
   xmlns:inkscape="http://www.inkscape.org/namespaces/inkscape"
   xmlns:sodipodi="http://sodipodi.sourceforge.net/DTD/sodipodi-0.dtd"
   xmlns="http://www.w3.org/2000/svg"
   xmlns:svg="http://www.w3.org/2000/svg"><sodipodi:namedview
     id="namedview1"
     pagecolor="#ffffff"
     bordercolor="#666666"
     borderopacity="1.0"
     inkscape:showpageshadow="2"
     inkscape:pageopacity="0.0"
     inkscape:pagecheckerboard="0"
     inkscape:deskcolor="#d1d1d1"
     inkscape:document-units="mm"
     inkscape:zoom="0.51969075"
     inkscape:cx="326.15551"
     inkscape:cy="685.98489"
     inkscape:window-width="1247"
     inkscape:window-height="1011"
     inkscape:window-x="46"
     inkscape:window-y="32"
     inkscape:window-maximized="0"
     inkscape:current-layer="layer1" /><defs
     id="defs1" /><g
     inkscape:label="Layer 1"
     inkscape:groupmode="layer"
     id="layer1"><path
       style="fill:#000000;fill-opacity:1;stroke-width:0.960235"
       d="m 151.89137,296.67496 c -5.13501,-0.59751 -11.13081,-2.38512 -16.4807,-4.913 -6.09671,-2.88067 -10.1098,-5.73621 -14.94332,-10.63296 -5.7249,-5.80014 -8.67405,-10.13213 -11.47267,-16.85263 -2.91594,-7.0017 -4.01681,-11.89869 -4.29517,-19.10503 -0.59184,-15.31079 4.90352,-29.19191 15.94226,-40.27268 3.11707,-3.12902 7.46118,-6.59785 9.71178,-7.75521 0.69649,-0.35779 1.25984,-0.76235 1.25135,-0.89918 -0.01,-0.13678 -1.2253,-1.0126 -2.70408,-1.94639 -4.82679,-3.04905 -11.87439,-10.76063 -15.58143,-17.04955 -2.25782,-3.83036 -4.52563,-9.40741 -5.82802,-14.33256 -0.62322,-2.35765 -1.21542,-4.05721 -1.31553,-3.77694 -0.10465,0.28064 -0.42789,1.42666 -0.72904,2.54777 -0.7209,2.68926 -2.72371,7.98333 -3.98414,10.53075 -3.933083,7.94882 -12.617149,17.68445 -19.307103,21.64532 -15.690621,9.28953 -34.511003,10.93729 -50.186846,4.39348 -5.391986,-2.25064 -6.368807,-2.71042 -8.818481,-4.14911 C 18.016495,191.09192 10.80446,183.84607 6.9420729,177.8227 3.4949042,172.44699 -0.76641883,162.02861 0.11813715,161.13903 0.31731482,160.93908 2.586802,160.013 5.1615203,159.08235 c 7.1018197,-2.56787 7.8869267,-2.80384 8.1917977,-2.46193 0.152321,0.17069 0.694159,1.68611 1.204368,3.36769 1.381223,4.55262 3.694381,8.69473 7.493063,13.41818 3.058591,3.803 7.50421,7.23508 12.698195,9.80309 6.326241,3.12795 10.719432,4.19168 17.487754,4.23434 6.548103,0.0468 11.088492,-1.08275 17.642636,-4.366 5.760684,-2.88605 9.349378,-5.64486 12.688541,-9.75422 4.106113,-5.05344 6.562171,-9.96435 8.067103,-16.13061 0.759268,-3.10925 0.897641,-4.45066 0.924374,-8.92459 0.06973,-11.36423 -3.225913,-19.80697 -10.885698,-27.90826 -3.145454,-3.32688 -6.438349,-5.683 -11.060358,-7.91399 -5.062809,-2.44383 -9.179027,-3.40135 -16.862207,-3.92261 C 41.711445,107.77391 33.802458,105.1934 24.368327,99.260648 21.034044,97.163762 16.132622,92.873409 13.185651,89.472179 7.4462499,82.847916 3.4890558,74.831494 1.3773534,65.550951 0.2625154,60.651396 -0.10930544,52.704081 0.53529418,47.553824 2.0184889,35.704006 7.5415026,24.444559 15.999255,16.028359 19.980484,12.066687 23.126629,9.6398249 27.535393,7.1294758 37.047908,1.7130914 47.363065,-0.63636445 58.190626,0.14705938 72.489216,1.1818807 84.3435,6.7613832 94.201577,17.097325 c 3.649614,3.8265 4.565152,5.040342 4.110651,5.45006 -0.58371,0.526181 -11.120251,7.753797 -11.901959,8.164336 -0.723223,0.38002 -0.890667,0.292322 -2.013751,-1.057039 -3.363112,-4.03908 -8.813931,-8.408132 -13.07399,-10.479296 -6.4624,-3.141998 -11.734163,-4.229789 -19.254657,-3.973364 -6.293469,0.215149 -10.132367,1.142396 -15.500995,3.746523 -9.940163,4.821449 -17.580885,13.852932 -20.745522,24.521535 -3.234398,10.903283 -0.923217,23.828849 5.938354,33.215672 4.639693,6.346797 10.751529,10.910539 18.23098,13.61276 4.532844,1.637592 7.249248,2.107407 14.948449,2.585411 7.857007,0.487605 14.215225,2.031064 20.774713,5.042812 15.049726,6.909915 26.68703,21.425585 30.23746,37.716965 0.33951,1.55761 0.68253,2.89703 0.76161,2.97644 0.0813,0.0817 0.4872,-1.1949 0.90808,-2.83191 1.88598,-7.34748 5.83675,-15.23622 10.50772,-20.98069 8.5186,-10.47685 19.93394,-17.294038 33.08455,-19.757962 4.96317,-0.929594 15.88317,-0.840727 20.5274,0.167221 3.45846,0.750682 9.05194,2.621325 12.57762,4.206173 2.18245,0.981028 6.85832,3.852808 8.85613,5.438848 2.6542,2.1073 8.11907,7.57278 10.39178,10.39309 2.43024,3.01573 6.24206,9.38581 5.92509,9.90145 -0.10464,0.17071 -1.66969,1.32012 -3.47718,2.55419 -1.80759,1.23408 -4.48121,3.0764 -5.94137,4.09416 -1.4603,1.01844 -2.79371,1.76446 -2.96336,1.65899 -0.16974,-0.10524 -0.78254,-1.13537 -1.36122,-2.28994 -2.7593,-5.49894 -8.44373,-12.02929 -13.01564,-14.95277 -7.79409,-4.98374 -14.71728,-6.91775 -23.544,-6.57749 -5.69116,0.21983 -8.60964,0.82202 -13.48119,2.78572 -4.86968,1.96231 -8.86882,4.51779 -12.22704,7.81378 -8.44861,8.2919 -12.66819,18.02251 -12.66819,29.21438 0,8.73363 2.19781,15.74472 7.10923,22.67837 6.39495,9.02808 18.21005,15.77501 28.73601,16.4097 1.7433,0.10524 3.51463,0.26191 3.93624,0.34728 l 0.76623,0.1566 -0.0931,7.37579 -0.0931,7.37564 -4.22253,0.38704 c -13.57012,1.24459 -23.19192,6.78527 -30.31407,17.45622 -4.36794,6.5445 -6.50868,13.40228 -6.5596,21.01354 -0.0583,8.15018 1.97119,14.86191 6.60389,21.88058 3.68928,5.58945 8.22908,9.61064 14.22442,12.59956 6.1209,3.05149 11.31092,4.31268 17.99318,4.37257 7.99562,0.07 17.11826,-2.74047 23.21824,-7.15733 5.24699,-3.79926 10.43655,-10.35573 13.33026,-16.84118 1.1511,-2.57982 1.21924,-2.59969 4.22354,-1.22367 0.74997,0.34376 3.11104,1.23489 5.24771,1.98114 2.13653,0.74601 4.15062,1.46428 4.47583,1.59535 0.62323,0.25143 0.84066,2.00909 0.2907,2.35064 -0.16508,0.10523 -0.39883,0.57881 -0.5186,1.05938 -0.443,1.77499 -3.83962,8.55828 -5.28696,10.55824 -3.90357,5.3944 -10.03902,11.17816 -15.436,14.55121 -6.35996,3.97512 -16.34257,7.50242 -23.55483,8.32279 -3.54251,0.40341 -9.39206,0.38935 -13.00213,-0.0352 z m -6.56217,-32.14917 c -6.86435,-0.07 -9.5669,-0.20463 -9.93225,-0.50865 -0.43487,-0.36364 -0.47208,-2.13536 -0.27905,-13.32779 0.12199,-7.10004 0.23139,-17.25464 0.24069,-22.56602 0.008,-5.66742 0.15572,-9.91592 0.35113,-10.28366 0.32093,-0.60336 1.20169,-0.61857 23.3724,-0.40225 12.67133,0.12285 23.30485,0.36131 23.62996,0.5297 0.49182,0.25375 0.59182,0.78342 0.59182,3.14329 v 2.83762 l -1.1825,0.22334 c -0.99297,0.18708 -1.18763,0.37066 -1.21669,1.1424 -0.0232,0.50513 -0.0813,1.87181 -0.14536,3.03651 -0.11852,2.26633 -0.0122,2.445 1.65284,2.7876 l 1.02555,0.21047 -0.0696,8.14236 c -0.035,4.47838 -0.16161,11.81135 -0.27092,16.29534 -0.17095,7.00509 -0.27791,8.2159 -0.75578,8.60014 -0.56277,0.45251 -3.45335,0.46304 -37.01067,0.14147 z m 35.44411,-2.18925 c 0.0931,-0.24088 0.2,-6.83732 0.24767,-14.6587 l 0.0813,-14.22057 -1.18228,-0.38702 c -1.16274,-0.38002 -1.18507,-0.42328 -1.3511,-2.59454 -0.0931,-1.21443 -0.0931,-3.58387 0,-5.26542 l 0.16853,-3.05734 1.11739,-0.10524 c 1.03369,-0.10523 1.10926,-0.18825 1.01276,-1.18893 l -0.10475,-1.0816 -9.79621,-0.16949 c -5.38781,-0.0934 -15.04053,-0.16948 -21.45027,-0.16948 h -11.65404 l -0.21047,1.97074 c -0.11628,1.08392 -0.26742,10.71454 -0.33835,21.40127 l -0.12683,19.43045 11.99183,0.16947 c 27.98721,0.39641 31.41824,0.38821 31.58753,-0.0701 z m -23.39774,-2.22141 c -0.59184,-1.34915 -0.80345,-6.42761 -0.35231,-8.45256 0.22789,-1.02198 0.17442,-1.08863 -1.34157,-1.67048 -0.86857,-0.33323 -2.30026,-1.28504 -3.18209,-2.11454 -3.67752,-3.45934 -3.9232,-8.95126 -0.57206,-12.77999 1.92538,-2.19965 3.61811,-3.00158 6.73123,-3.18864 3.2901,-0.19762 5.44582,0.66181 7.54225,3.00647 2.59164,2.8989 3.15567,6.60718 1.56958,10.32098 -0.79068,1.85074 -3.26371,4.07148 -5.37396,4.82519 -1.90433,0.68052 -1.94074,0.77407 -1.35635,3.51487 0.42092,1.97377 -0.0582,5.74379 -0.90577,7.04828 -0.80694,1.24949 -2.09259,1.01142 -2.75976,-0.50981 z m 2.21596,-3.57312 c 0.0696,-1.17025 -0.0465,-2.80656 -0.26975,-3.63626 -0.36164,-1.34959 -0.44418,-1.43871 -0.78021,-0.84424 -0.43137,0.76354 -0.53603,5.77771 -0.14069,6.75125 0.46279,1.13889 1.04415,0.0234 1.18973,-2.27123 z m 2.59965,-8.70375 c 1.61181,-0.74833 2.53897,-1.72003 3.58614,-3.75925 2.35035,-4.57732 -1.3588,-10.22299 -6.69996,-10.19844 -4.02159,0.0234 -7.52736,3.57754 -7.52178,7.6358 0.002,1.49964 1.45319,4.37457 2.63524,5.22112 2.55397,1.82878 5.54501,2.24037 8.00036,1.10148 z m -5.83023,-2.07361 c -2.39897,-1.47108 -3.10521,-4.40777 -1.67516,-6.9658 1.35077,-2.41649 4.87224,-3.33132 7.23828,-1.88047 1.26404,0.77525 2.46283,2.93037 2.46283,4.42822 0,1.49774 -1.19879,3.6531 -2.46283,4.42811 -1.45572,0.89216 -4.09841,0.88748 -5.56312,-0.007 z m 5.01165,-2.35378 c 1.04764,-1.05354 1.22531,-1.98101 0.61044,-3.19066 -0.97321,-1.91459 -2.73963,-2.39913 -4.59619,-1.26083 -1.90446,1.16814 -1.90446,3.60669 0,4.77434 1.56191,0.95764 2.8136,0.8559 3.98611,-0.32274 z m -18.52981,-0.21513 c -1.62366,-1.1436 -0.61042,-4.22701 1.38903,-4.22701 1.62004,0 2.58943,0.82904 2.58943,2.21405 0,2.12204 -2.22528,3.24784 -3.97846,2.01296 z m 2.23665,-1.65856 c 0.15349,-0.79278 -0.36857,-1.28631 -1.07319,-1.01491 -0.65811,0.25371 -0.75579,1.36956 -0.14068,1.61663 0.66042,0.26543 1.08717,0.0585 1.21388,-0.60218 z m 17.35045,-60.08197 c -0.17557,-0.22332 -0.39882,-1.14942 -0.49534,-2.05725 -0.21045,-1.9782 -1.27098,-3.31049 -2.17734,-2.73545 -0.53486,0.33911 -1.12087,1.80025 -1.60819,4.00809 -0.21278,0.96118 -0.24999,0.97637 -2.01724,0.7928 -2.75942,-0.28647 -5.88825,-1.26635 -6.09056,-1.90759 -0.0931,-0.3087 -0.0233,-1.09093 0.15935,-1.73896 0.47093,-1.65223 0.4186,-3.23988 -0.12319,-3.69146 -0.59882,-0.49927 -1.87062,0.48175 -3.26148,2.5149 -0.93836,1.37136 -1.086,1.45905 -1.94085,1.15411 -1.5039,-0.53671 -5.64604,-3.82898 -5.75291,-4.57217 -0.0582,-0.38702 0.35116,-1.18776 0.94183,-1.85237 1.67865,-1.89077 1.80063,-3.73824 0.2465,-3.73824 -0.43369,0 -1.46482,0.42797 -2.29083,0.95183 -0.82555,0.52382 -1.6839,1.06286 -1.90667,1.19826 -0.64648,0.39289 -4.4932,-5.20731 -4.4932,-6.54076 0,-0.34027 0.59883,-1.01378 1.34299,-1.50851 1.72027,-1.14473 2.62963,-2.47117 2.07597,-3.028 -0.43837,-0.44083 -2.40678,-0.51448 -3.81672,-0.14269 -0.61043,0.16027 -1.06739,0.0701 -1.40367,-0.2631 -0.61159,-0.61503 -1.34529,-4.61037 -1.18644,-6.46266 l 0.11628,-1.35871 2.09758,-0.2023 c 2.12829,-0.20461 3.13827,-0.69687 3.13827,-1.53047 0,-0.68871 -1.32963,-1.41928 -3.04013,-1.66987 -2.14269,-0.31454 -2.43152,-0.6466 -2.17781,-2.51009 0.26278,-1.92991 0.74299,-3.98353 1.21832,-5.20606 0.35231,-0.90852 0.41394,-0.92606 2.94,-0.84888 2.46652,0.07 2.58463,0.0469 2.6907,-0.70859 0.0813,-0.57997 -0.29417,-1.15293 -1.43576,-2.18424 -0.84996,-0.76823 -1.54644,-1.65946 -1.54644,-1.9796 0,-0.75888 2.9008,-5.15939 3.75448,-5.69538 0.5616,-0.35314 0.98601,-0.23154 2.85162,0.8185 1.20544,0.67819 2.4163,1.14589 2.69083,1.03951 0.79415,-0.30638 0.58254,-1.68684 -0.50814,-3.30514 -0.55461,-0.822 -1.01041,-1.68121 -1.01389,-1.90873 -0.008,-0.50047 2.98476,-2.76737 5.05734,-3.83061 1.41739,-0.7273 1.52028,-0.73665 1.85005,-0.16722 2.6371,4.55414 4.88351,4.64748 3.92717,0.16373 -0.52209,-2.44825 -0.21045,-2.85447 2.56802,-3.34838 2.69176,-0.47824 4.74376,-0.58815 5.05932,-0.27127 0.1232,0.12389 0.3407,1.08978 0.48371,2.14657 0.27091,2.00604 1.24204,3.46999 1.9927,3.00344 0.61742,-0.38353 1.35065,-2.38394 1.35065,-3.68396 0,-1.89564 0.53602,-2.07971 4.12947,-1.41553 4.47866,0.82786 4.4212,0.77873 3.62124,3.11662 -1.78445,5.21586 0.76391,6.36456 3.23544,1.45858 0.53138,-1.0547 1.06973,-1.68355 1.44145,-1.68355 0.70115,0 4.13543,2.00298 5.81373,3.39128 l 1.18215,0.97755 -0.87438,0.95764 c -2.15526,2.35996 -2.92837,4.31666 -1.86713,4.72615 0.63486,0.24555 2.51211,-0.58349 3.80392,-1.67888 1.33854,-1.13536 1.80339,-1.12953 2.90545,0.0352 1.15112,1.21466 3.29498,4.8121 3.29498,5.52794 0,0.30636 -0.76044,1.05353 -1.69062,1.65888 -2.01131,1.31077 -2.6085,2.21241 -1.97434,2.98086 0.43254,0.52386 2.17921,0.48761 4.75678,-0.0936 0.79066,-0.18007 0.97553,-0.0701 1.29343,0.76239 0.58487,1.53479 1.43761,6.14706 1.23436,6.67943 -0.10465,0.27714 -0.886,0.57647 -1.82945,0.7016 -1.89761,0.25255 -3.14127,1.00207 -3.14127,1.89189 0,0.67117 1.08251,1.21772 3.11267,1.57234 1.82991,0.31923 2.07804,0.79396 1.81596,3.46999 -0.28604,2.92194 -0.95577,5.21048 -1.65339,5.65319 -0.37558,0.23851 -1.02207,0.21748 -2.08366,-0.0701 -4.6733,-1.257 -5.66906,1.05704 -1.3418,3.11768 1.07089,0.5098 1.83923,1.09796 1.83923,1.40654 0,1.22682 -3.5187,6.58379 -4.33609,6.6018 -0.24885,0.005 -1.10579,-0.46304 -1.90529,-1.0395 -0.84764,-0.61269 -1.92689,-1.07224 -2.58871,-1.10381 -1.08602,-0.0468 -1.13253,-0.005 -1.07904,1.10148 0.035,0.677 0.49532,1.78314 1.11856,2.67252 0.58487,0.83488 0.98484,1.72167 0.88951,1.97154 -0.49069,1.28481 -6.68252,4.63916 -7.34111,3.97676 -0.14534,-0.14617 -0.62553,-0.95296 -1.0674,-1.7938 -0.5046,-0.95999 -1.14645,-1.64988 -1.72503,-1.85543 -1.2402,-0.44082 -1.65053,0.21631 -1.37285,2.19579 0.11853,0.84074 0.23837,2.06369 0.26859,2.71756 l 0.0582,1.18905 -2.19571,0.54373 c -3.26233,0.80914 -5.63165,1.02196 -6.0107,0.54022 z m 4.2411,-2.28829 1.64157,-0.3543 -0.0232,-2.49585 c -0.008,-2.03596 0.10464,-2.635 0.65462,-3.2518 1.66086,-1.85882 3.82333,-1.4096 5.63116,1.16988 0.59765,0.8524 1.17879,1.54907 1.2925,1.54907 0.43137,0 3.37916,-2.0375 3.37916,-2.33577 0,-0.17193 -0.3779,-0.97753 -0.84065,-1.7909 -1.02322,-1.80022 -1.07671,-3.30333 -0.15815,-4.47721 1.05925,-1.35474 2.58034,-1.47914 4.85445,-0.39755 2.14596,1.02079 2.38572,0.94711 3.43544,-1.05471 0.63369,-1.20729 0.63369,-1.24212 0.01,-1.61863 -2.64746,-1.60053 -3.8152,-3.52916 -3.20417,-5.29176 0.55927,-1.61221 1.97085,-2.18726 4.73701,-1.92862 l 2.28595,0.21398 0.37091,-1.38584 c 0.63951,-2.38955 0.37907,-3.0722 -1.36819,-3.58214 -1.78806,-0.52149 -3.27044,-1.93422 -3.56043,-3.39244 -0.29999,-1.50791 1.07089,-3.00718 3.43543,-3.75659 1.80283,-0.57176 1.84365,-0.61269 1.62796,-1.62425 -0.43836,-2.0541 -0.69416,-2.26678 -2.4521,-2.03236 -1.94074,0.25842 -3.79636,-0.42094 -4.62587,-1.69348 -0.94182,-1.44547 -0.40928,-3.13894 1.56576,-4.98139 l 1.66655,-1.55457 -1.02089,-1.4179 c -0.56159,-0.77991 -1.16565,-1.41774 -1.34203,-1.41774 -0.17675,0 -0.87439,0.37767 -1.55191,0.84071 -2.18118,1.48837 -4.23877,1.521 -5.56617,0.0817 -0.9511,-1.02663 -0.83251,-2.80745 0.32905,-4.92587 l 0.98135,-1.78911 -1.23434,-0.84308 c -0.67904,-0.46422 -1.39461,-0.84306 -1.59053,-0.84306 -0.19535,0 -0.92089,0.76005 -1.61061,1.68987 -1.50647,2.02906 -2.92316,2.85926 -4.34378,2.54554 -1.88992,-0.41744 -2.92478,-3.59814 -1.98202,-6.09189 0.28835,-0.76353 0.22907,-0.92139 -0.44301,-1.17828 -0.42672,-0.16375 -1.1953,-0.34963 -1.70713,-0.41394 -0.85694,-0.10523 -0.98019,0.0352 -1.55901,1.74704 -0.74532,2.21064 -1.96979,3.40368 -3.48322,3.39317 -1.55215,-0.007 -2.57443,-0.96935 -3.28196,-3.07547 -0.66393,-1.97787 -1.02787,-2.21137 -2.89779,-1.85872 l -1.14878,0.21634 v 2.00673 c 0,1.10379 -0.1814,2.4077 -0.40349,2.89762 -0.42207,0.93074 -1.8462,1.85881 -2.85244,1.85881 -0.85693,0 -2.60105,-1.29802 -3.48264,-2.59173 -0.72904,-1.06874 -0.80926,-1.10148 -1.65853,-0.65129 -2.16177,1.14707 -2.22724,1.27054 -1.46529,2.77263 1.20459,2.37435 1.26333,3.59556 0.2314,4.82821 -1.14996,1.37393 -2.84176,1.44642 -5.23932,0.22451 l -1.6732,-0.85241 -1.0174,1.4132 c -0.55928,0.77759 -1.01855,1.53201 -1.01855,1.67724 0,0.14495 0.43834,0.61857 0.97436,1.05352 1.09065,0.88283 2.06574,2.60775 2.06574,3.65427 0,0.38003 -0.44299,1.19011 -0.98601,1.80023 -0.90577,1.01963 -1.15227,1.10966 -3.03068,1.11668 -1.12437,0.003 -2.18865,0.1566 -2.36433,0.34027 -0.17556,0.18241 -0.42206,1.03716 -0.54764,1.89729 -0.22558,1.54964 -0.21743,1.56684 0.84414,1.78036 2.01202,0.40457 3.44638,1.31241 3.93601,2.49105 0.89995,2.16693 -0.2465,3.84498 -3.32231,4.85957 l -1.7919,0.59049 0.11629,1.32036 c 0.14777,1.70729 0.45929,1.99388 2.04201,1.87896 1.77074,-0.1286 3.67811,0.72144 4.09529,1.82501 0.64764,1.71325 0.40232,2.56437 -1.20482,4.18069 -1.70784,1.71744 -1.75389,2.22923 -0.35697,3.96528 l 0.81856,1.01844 1.56204,-0.76353 c 3.16462,-1.54616 5.59965,-0.63259 5.59558,2.09852 -0.002,1.31322 -0.26511,2.05491 -1.37365,3.8742 -0.45116,0.74136 -0.40814,0.85478 0.68717,1.78341 0.643,0.54607 1.44074,0.99273 1.77236,0.99273 0.33138,0 1.33541,-0.76472 2.23072,-1.6985 2.01283,-2.09994 3.26103,-2.27169 4.85584,-0.66766 0.98019,0.98571 1.01857,1.13421 0.89182,3.40144 l -0.13375,2.37065 1.19369,0.33323 c 2.25735,0.63025 2.57222,0.49462 3.26242,-1.41332 1.11855,-3.09008 3.57566,-4.04037 5.54419,-2.1439 0.55577,0.53553 1.17646,1.5934 1.37808,2.3497 0.57556,2.16001 0.40811,2.07209 2.92021,1.53048 z m -9.88471,-17.1073 c -2.36164,-0.75304 -4.03272,-1.79288 -5.87614,-3.65628 -4.16344,-4.20874 -5.13014,-10.00315 -2.5692,-15.40035 2.66746,-5.62148 7.43296,-8.59568 13.17457,-8.22222 3.26138,0.21163 5.1778,1.00909 7.85701,3.26701 5.9408,5.00688 6.58006,13.97393 1.41517,19.84869 -1.7582,1.99972 -3.20534,2.94534 -5.97987,3.90706 -2.40327,0.83253 -5.86535,0.94361 -8.02154,0.25609 z m 7.83783,-2.23675 c 5.14791,-1.81954 8.56661,-7.65429 7.58259,-12.94136 -0.18839,-1.01259 -0.59184,-2.43422 -0.89533,-3.16013 -0.85577,-2.04179 -3.87042,-4.84703 -6.49518,-6.04381 -2.02539,-0.92374 -2.54002,-1.02079 -4.6647,-0.88398 -4.04259,0.26074 -7.34526,2.19101 -9.44202,5.51813 -3.32731,5.2798 -2.09297,12.09068 2.87112,15.84153 3.1164,2.35484 7.31111,2.98894 11.04399,1.66952 z M 43.790186,179.20363 c -3.855423,-1.17933 -6.396128,-4.6809 -7.786306,-10.73104 -0.839501,-3.65172 -0.48719,-3.30956 -4.710031,-4.57333 -3.988554,-1.19351 -7.142383,-3.39716 -8.71684,-6.09037 -0.769736,-1.31744 -0.910428,-1.95003 -0.910428,-4.10527 0,-3.67485 1.289715,-6.28679 4.851659,-9.82578 l 2.67593,-2.6585 -0.636016,-2.67497 c -0.639511,-2.68564 -0.816246,-6.32458 -0.424414,-8.71087 0.327896,-1.99551 2.118989,-4.69938 3.912402,-5.90632 3.182778,-2.14203 7.153423,-2.20071 13.354216,-0.19761 l 2.789993,0.90151 1.939105,-1.88244 c 4.341213,-4.21434 7.391326,-5.85894 10.890822,-5.87252 1.605983,-0.005 2.558613,0.18594 3.546958,0.71562 3.309627,1.77473 5.820797,5.87426 6.740533,11.00397 l 0.573222,3.19658 1.996657,0.6326 c 5.246189,1.6632 8.720457,4.23153 10.317943,7.62716 0.760445,1.61736 0.867413,2.21534 0.730198,4.1194 -0.236034,3.28431 -1.417724,5.35324 -5.238385,9.16713 l -3.208698,3.2029 0.589504,2.82409 c 1.481695,7.09993 -0.312774,12.4099 -4.900365,14.49662 -2.303981,1.04769 -6.701706,0.94947 -10.583862,-0.23736 l -2.983375,-0.91206 -1.745846,1.58709 c -4.531443,4.1194 -9.513325,5.98885 -13.064334,4.90271 z m 7.117382,-3.14541 c 2.200713,-1.06872 5.383385,-3.63203 5.383385,-4.33502 0,-0.13554 -0.379062,-0.41978 -0.842996,-0.63257 -0.463934,-0.21282 -2.408162,-1.43483 -4.320743,-2.71627 l -3.477538,-2.3297 -4.968627,-0.21632 c -5.722201,-0.24906 -5.401278,-0.48407 -4.437141,3.25788 1.00345,3.89326 3.011855,6.86373 5.368505,7.93903 1.706308,0.77874 4.450395,0.41509 7.295499,-0.9682 z m 21.085513,-4.52328 c 0.876703,-0.44082 1.700979,-1.25931 2.364559,-2.34815 0.861579,-1.41346 1.038315,-2.08929 1.140647,-4.37175 0.116278,-2.54953 -0.444175,-6.54055 -0.962753,-6.86234 -0.130293,-0.0817 -1.666685,0.57764 -3.414155,1.46443 -1.747491,0.88632 -3.707412,1.83614 -4.355403,2.11045 -0.898799,0.38118 -1.499481,1.06756 -2.533506,2.89738 -0.74532,1.31921 -1.935852,3.20689 -2.645459,4.19472 -0.709278,0.98804 -1.213217,1.99784 -1.119727,2.24409 0.546487,1.43356 9.025321,1.92724 11.524291,0.67117 z M 58.667936,169.245 c 1.042987,-1.11547 3.703448,-5.20215 3.703448,-5.68754 0,-0.28646 -0.290677,-0.34025 -0.929028,-0.17297 -0.510446,0.1333 -3.036149,0.67703 -5.611738,1.20742 -2.575484,0.53085 -4.755625,1.03832 -4.844563,1.12836 -0.229062,0.23035 6.081953,4.24313 6.727381,4.2775 0.132543,0.007 0.561611,-0.33091 0.954621,-0.75184 z m -17.288698,-9.07379 c -2.326404,-2.49305 -3.560541,-3.58761 -3.734716,-3.31215 -0.453483,0.71796 -0.322082,6.61831 0.15227,6.81067 0.232555,0.0937 1.915158,0.18356 3.739854,0.19878 l 3.317535,0.0233 z m 12.642966,2.8596 c 1.446222,-0.24437 4.31389,-0.93894 6.372648,-1.54393 l 3.743211,-1.10029 0.96739,-2.16893 c 1.112755,-2.49525 3.268136,-9.17295 3.568,-11.05738 0.186045,-1.16579 0.03496,-1.49481 -1.678658,-3.74898 -2.579534,-3.38674 -5.456977,-6.60906 -7.609103,-8.52084 -1.740033,-1.54592 -1.857937,-1.5941 -3.377993,-1.38047 -3.179281,0.44668 -8.144432,1.47586 -10.441886,2.16387 l -2.359663,0.70625 -1.016237,2.29206 c -1.523431,3.43513 -2.985468,8.02903 -3.666023,11.5189 l -0.606946,3.11253 1.670976,1.97379 c 2.149323,2.53885 6.461241,6.95012 7.698632,7.87598 1.042986,0.77991 1.422966,0.77289 6.735531,-0.12285 z m -2.798264,-4.69235 c -2.378038,-0.54372 -3.746119,-1.28177 -4.87398,-2.62974 -4.190397,-5.00827 -2.96825,-11.8959 2.631755,-14.83172 3.548223,-1.86 8.296855,-0.94715 10.964654,2.10866 1.54646,1.77126 2.139218,3.11128 2.334555,5.27726 0.462775,5.13447 -2.963252,9.54455 -8.016751,10.31909 -0.649981,0.0936 -2.018287,-0.01 -3.040233,-0.24321 z m 4.563196,-2.5507 c 3.931227,-1.79591 5.394184,-6.87284 2.985571,-10.36037 -2.519319,-3.64748 -7.993166,-3.99663 -10.883743,-0.69455 -3.317535,3.79035 -1.983403,9.44307 2.669545,11.31042 1.330532,0.53437 3.760307,0.41508 5.228627,-0.25607 z m -4.225299,-5.14136 c -0.755771,-0.76004 -0.825537,-1.25886 -0.349974,-2.51632 0.748797,-1.97936 3.727621,-1.22588 3.727621,0.94246 0,2.02942 -1.998751,2.96042 -3.377872,1.57363 z M 35.26659,161.09226 c 0.02318,-0.98104 0.137213,-3.12938 0.263943,-4.77445 l 0.22906,-2.99082 -1.531441,-2.31624 c -0.841837,-1.27381 -2.077134,-3.40568 -2.743967,-4.73726 -0.666244,-1.33158 -1.405404,-2.42115 -1.641092,-2.42115 -0.768574,0 -4.226682,3.85705 -5.28571,5.89418 -2.299897,4.42494 -0.832528,8.33726 4.202735,11.20508 1.40947,0.80329 4.554924,1.86945 5.600456,1.89925 0.824396,0.0234 0.873226,-0.0701 0.905789,-1.75859 z m 35.36701,-3.72314 c 1.576914,-0.78693 2.935928,-1.61 3.019884,-1.82993 0.08132,-0.21984 -0.538356,-1.82234 -1.383897,-3.56073 -1.409021,-2.89868 -1.575063,-3.10776 -2.001554,-2.52123 -0.255793,0.35196 -0.465094,0.90154 -0.465094,1.22215 0,0.50514 -1.777025,5.81744 -2.517103,7.52531 -0.384875,0.88866 0.166284,0.75069 3.347643,-0.83604 z m 8.478955,-6.46314 c 2.41408,-2.57781 3.864593,-5.34016 3.864593,-7.35975 0,-3.25297 -3.441477,-6.79159 -8.169537,-8.40028 -1.321449,-0.45019 -2.452218,-0.76823 -2.512796,-0.70743 -0.05814,0.0586 -0.1907,1.17197 -0.289519,2.46894 -0.09308,1.29711 -0.349992,3.81236 -0.559291,5.58947 -0.375567,3.18479 -0.368577,3.24932 0.463934,4.48269 0.465094,0.68872 1.480293,2.56028 2.257469,4.15987 1.667028,3.43141 1.505053,3.4391 4.945147,-0.23385 z M 37.32372,146.7115 c 0.38602,-1.51024 1.167034,-4.01557 1.736209,-5.5677 0.568566,-1.55199 0.955762,-2.90088 0.860422,-2.99734 -0.398823,-0.40106 -7.170866,3.17952 -7.745143,4.09509 -0.359285,0.57295 0.877863,3.39934 2.852561,6.51762 1.241578,1.95996 1.281341,1.92466 2.296176,-2.04767 z m 32.267722,-5.27771 c 0.116278,-0.5823 0.308118,-2.48929 0.426716,-4.23669 0.216272,-3.17649 0.216272,-3.1773 -0.644148,-3.50611 -1.245645,-0.47588 -8.353732,-0.88165 -8.353732,-0.47707 0,0.18124 0.397663,0.69924 0.883693,1.15174 0.486014,0.45252 2.250824,2.46686 3.921818,4.47537 1.671078,2.00835 3.154623,3.65169 3.296822,3.65169 0.141886,0 0.353488,-0.47708 0.469748,-1.0594 z M 34.00885,138.36325 c 1.340172,-0.77758 3.595667,-1.91485 5.012233,-2.5286 2.543957,-1.10263 2.594777,-1.1494 4.139369,-3.81038 0.860422,-1.48206 1.964456,-3.28686 2.453964,-4.01077 0.833688,-1.23209 0.852289,-1.34387 0.299986,-1.75101 -1.158088,-0.85358 -4.030878,-1.52217 -7.242256,-1.68459 -3.077194,-0.15555 -3.359271,-0.11694 -4.968508,0.76939 -3.425802,1.87494 -4.548419,5.29268 -3.577654,10.89122 0.536036,3.08987 0.682544,3.53807 1.158089,3.53807 0.158153,0 1.384711,-0.63611 2.724777,-1.41276 z m 18.819688,-6.62299 c 0.97554,-0.11693 1.77341,-0.32389 1.77341,-0.46303 0,-0.78928 -5.43443,-3.96192 -6.088927,-3.55512 -0.448828,0.27946 -3.707186,5.20803 -3.707186,5.60805 0,0.14391 1.406114,-0.10524 3.124639,-0.55894 1.718542,-0.45134 3.92263,-0.91436 4.898064,-1.03014 z m 16.705337,-0.63959 c 0.369752,-0.37184 -0.787177,-4.81247 -1.793067,-6.88608 -2.005482,-4.13355 -4.615036,-5.66683 -8.252093,-4.84823 -1.006928,0.22684 -2.546639,0.79512 -3.422287,1.26308 -1.502045,0.8033 -5.064334,3.79867 -5.590474,4.70113 -0.158151,0.27127 0.653458,0.97752 2.364559,2.05501 1.433315,0.9027 3.1544,2.06803 3.824831,2.58975 1.186346,0.92375 1.3482,0.95181 6.080327,1.05354 2.673854,0.0584 5.254322,0.13798 5.734296,0.17889 0.480218,0.0468 0.954621,-0.007 1.053458,-0.10523 z M 47.78106,85.453558 C 43.925654,84.608166 42.740001,84.205579 39.907685,82.782434 32.738549,79.180197 27.176576,73.272711 24.319949,66.226573 22.20492,61.009672 21.741227,58.452901 21.924001,53.017801 c 0.10469,-2.961227 0.376727,-5.562663 0.724401,-6.809243 2.649768,-9.494286 8.515691,-16.626724 17.189272,-20.900478 8.090948,-3.986579 16.847551,-4.446342 25.402087,-1.333459 5.951141,2.165526 12.016363,6.849235 15.650981,12.086019 1.145284,1.650334 3.256712,6.12813 4.054011,8.598376 4.218896,13.071261 -1.102286,28.071031 -12.688316,35.769983 -5.691851,3.782075 -10.513627,5.323669 -17.316487,5.536596 -3.270434,0.105247 -4.884551,-0.0081 -7.158768,-0.512148 z M 60.175671,83.41993 C 74.340544,80.458825 84.328377,68.239507 84.328377,53.871151 84.328377,49.781558 83.893512,47.3195 82.55334,43.80976 80.482141,38.387527 76.520096,33.104205 72.369236,30.229271 70.368843,28.84378 69.071342,28.74743 69.876547,30.044522 c 0.340684,0.548399 0.341843,0.823182 0.007,1.361875 -0.23022,0.370664 -0.418583,0.968171 -0.418583,1.326674 0,0.358975 -0.513941,1.270552 -1.141807,2.026381 -0.818582,0.984541 -1.305304,2.077126 -1.718662,3.853747 -0.317428,1.363628 -0.79415,3.178717 -1.061572,4.033464 -0.430228,1.378243 -0.423238,1.700735 0.05814,2.850734 0.670899,1.615138 0.432531,2.660952 -0.726718,3.192395 -1.278209,0.585811 -3.035925,-0.05846 -3.703347,-1.355676 -0.638333,-1.241552 -2.012574,-1.838473 -3.093007,-1.343396 -0.977859,0.447836 -0.966231,1.069899 0.06973,3.594397 0.459281,1.121348 0.842997,2.649728 0.854624,3.397022 0.01211,0.843059 0.27905,1.672557 0.703448,2.184817 0.674394,0.814998 0.69649,0.818502 1.704006,0.219822 1.094137,-0.650122 3.739024,-0.774068 5.528025,-0.260741 0.556957,0.160182 2.0069,0.224496 3.22126,0.142648 4.206333,-0.282971 5.824532,1.157598 5.406399,4.812333 -0.125621,1.101472 -0.130293,2.655684 -0.01036,3.452559 0.301163,1.998429 -0.167495,3.099555 -2.675343,6.274416 -3.961232,5.015547 -8.150832,8.044479 -13.859072,10.019412 -4.016118,1.389581 -4.646908,1.439632 -5.115255,0.405737 -0.483694,-1.068731 0.09309,-2.464387 1.279593,-3.084003 0.518596,-0.271267 1.269367,-0.852412 1.667842,-1.290077 0.398823,-0.438478 1.234483,-1.282946 1.857955,-1.877287 0.623228,-0.594008 1.555164,-1.846437 2.07061,-2.782444 l 0.937139,-1.701786 -1.022053,-1.051197 c -0.561594,-0.577629 -1.022049,-1.35626 -1.022049,-1.729266 0,-0.372994 -0.230222,-0.767048 -0.511606,-0.875797 C 58.881499,65.736049 58.485013,64.980686 58.282687,64.168502 58.057121,63.266983 57.599,62.48624 57.105062,62.160718 56.037675,61.457972 56.051623,60.063597 57.140019,58.44892 58.160912,56.935973 58.186486,56.533386 57.308554,55.777795 56.936481,55.457412 56.633,54.959294 56.633,54.671641 c 0,-0.292315 -0.634856,-0.802129 -1.435633,-1.151747 -0.789513,-0.344941 -1.815629,-1.046515 -2.280136,-1.559718 -1.384018,-1.529897 -6.351953,-4.670143 -7.364124,-4.65506 -0.501137,0.0077 -2.128039,-0.289986 -3.614372,-0.660649 -4.660976,-1.162274 -6.025458,-3.171114 -5.964879,-8.779733 0.02318,-2.267722 -0.123201,-3.233554 -0.690661,-4.501065 -0.397662,-0.887492 -0.901134,-1.613621 -1.119726,-1.613621 -0.218592,0 -1.174372,0.802133 -2.123749,1.783635 -7.013666,7.245857 -9.839355,18.015489 -7.321212,27.90324 1.280647,5.028764 4.970271,11.073879 8.985091,14.721484 7.099472,6.45015 17.159408,9.209097 26.476688,7.261288 z M 34.418488,47.151589 c -0.618573,-0.250226 -0.516261,-0.943617 0.240687,-1.631861 0.773215,-0.703911 1.701549,-0.475899 1.701549,0.419777 0,1.102639 -0.872048,1.646594 -1.942358,1.212319 z m -3.651366,-1.845725 c -0.125623,-0.204624 0.0087,-0.611538 0.301162,-0.90503 0.438343,-0.440823 0.620893,-0.457192 1.058094,-0.09354 0.402301,0.335587 0.436026,0.550735 0.144136,0.905031 -0.461599,0.55892 -1.188544,0.603354 -1.50296,0.09355 z m 3.70485,-1.454714 c -0.273236,-0.716774 0.116277,-1.230325 0.918561,-1.230325 0.510445,0 0.652298,0.189422 0.57092,0.761207 -0.125622,0.88749 -1.201123,1.226586 -1.490069,0.470056 z m -2.309898,-1.121348 c -0.123199,-0.322723 0.007,-0.796287 0.301146,-1.092116 0.467414,-0.470055 0.574399,-0.466547 1.072041,0.03508 0.304641,0.306356 0.460457,0.797458 0.348833,1.092119 -0.270917,0.709759 -1.447037,0.686372 -1.722142,-0.03508 z m 29.010869,34.059203 c 1.924227,-0.809146 6.3609,-3.92461 7.708876,-5.414284 0.701127,-0.774069 1.990376,-2.325721 2.865107,-3.446718 l 1.590634,-2.03819 0.06973,-3.987512 c 0.04655,-2.742336 -0.05814,-4.068315 -0.331392,-4.246041 -0.217433,-0.142656 -1.764447,-0.282968 -3.436597,-0.313372 -1.672136,-0.03505 -3.817168,-0.162539 -4.766769,-0.293494 -1.369136,-0.189418 -1.916093,-0.116925 -2.641636,0.364828 -0.503471,0.332076 -1.387045,0.845392 -1.963884,1.14239 -1.419939,0.730803 -1.896764,1.55469 -1.344359,2.323151 0.234875,0.327392 0.668581,1.127192 0.965089,1.777905 0.295333,0.651291 0.824379,1.385609 1.175531,1.632788 0.351135,0.246724 0.638335,0.817335 0.638335,1.267515 0,0.454854 0.28372,0.970507 0.64067,1.162272 0.644166,0.347283 1.3867,1.997616 1.3867,3.083535 0,0.768227 -3.136389,5.58629 -4.315414,6.63011 -0.910428,0.805643 -0.911587,0.814998 -0.150018,0.825523 0.424397,0.0061 1.285873,-0.205793 1.915261,-0.470062 z M 56.278961,50.688107 c -0.007,-0.233857 -0.229058,-0.806807 -0.495321,-1.273825 -0.760427,-1.337901 -0.63835,-3.549496 0.253475,-4.565141 1.581223,-1.80211 5.509423,-1.398472 6.736121,0.692219 0.742984,1.266926 1.271459,1.376957 0.605786,0.126277 -0.469749,-0.883985 -0.408114,-1.304228 0.97438,-6.550948 1.142967,-4.339001 1.391909,-4.962 2.276987,-5.696315 0.518596,-0.430299 0.367434,-0.502795 -1.417258,-0.67936 -2.667329,-0.263088 -5.543372,0.784594 -5.544185,2.01995 -4.67e-4,0.785765 0.02318,0.790441 0.87089,0.229182 1.092976,-0.720283 1.830632,-0.459528 1.830632,0.647787 0,0.949464 -0.801142,1.581701 -2.819427,2.225976 -0.715092,0.228013 -1.702831,0.626742 -2.195729,0.885156 -1.067386,0.560089 -2.217343,0.605693 -3.114171,0.122778 -0.495323,-0.266597 -0.653457,-0.716774 -0.653457,-1.864315 0,-1.337668 -0.08132,-1.503473 -0.712756,-1.431913 -1.110417,0.126277 -1.595756,-0.912046 -0.825555,-1.767498 0.627884,-0.696899 0.624406,-0.699238 -1.125523,-0.699238 -1.076714,0 -2.256777,-0.257243 -3.054993,-0.666495 -1.292034,-0.662986 -1.31181,-0.662986 -3.187189,0 -2.013528,0.712098 -4.145877,0.850075 -5.790931,0.375342 l -1.011583,-0.29115 0.118528,4.283226 c 0.176737,6.405018 0.694155,7.198499 5.123751,7.867101 3.565542,0.537873 5.010951,0.951801 5.683356,1.628352 0.320924,0.322725 1.186692,0.952972 1.923066,1.400344 0.736011,0.446668 1.981551,1.396833 2.76698,2.110803 1.400059,1.272418 2.806033,1.71371 2.782431,0.873457 z m -0.06973,-17.812849 c -0.323259,-0.08185 -0.931364,-0.08185 -1.351106,-0.0068 -0.419761,0.08185 -0.155729,0.150845 0.587168,0.154342 0.743001,0.0039 1.087181,-0.05846 0.763938,-0.14733 z m 4.84735,-1.524637 c 1.073218,-0.56243 1.925506,-0.72496 3.567756,-0.679358 1.795282,0.04677 2.187702,-0.03508 2.333864,-0.534365 0.09292,-0.3274 0.383699,-1.006759 0.638333,-1.50967 0.567424,-1.12135 0.449989,-1.232551 -2.576402,-2.434346 -3.432757,-1.363391 -6.644949,-1.916234 -11.134883,-1.916234 -4.420045,0 -7.515027,0.549567 -11.107561,1.970372 -2.560119,1.012606 -6.249276,3.163397 -6.249276,3.642924 0,0.182408 0.683704,0.447838 1.520176,0.590491 3.782162,0.64311 4.587024,0.659481 5.877898,0.116932 1.657132,-0.696896 3.887849,-0.699235 4.871643,-0.0061 0.649978,0.458362 1.421341,0.502794 5.113282,0.298169 4.196453,-0.233858 4.362722,-0.216321 4.795268,0.479408 0.55462,0.892169 0.615096,0.890999 2.349902,-0.01166 z"
       id="path5-6" /></g></svg>
